<svg xmlns="http://www.w3.org/2000/svg" viewBox="0 0 497.44 463.84"><defs><style>.cls-1{fill:#2b2b2b;}</style></defs><g id="Layer_2" data-name="Layer 2"><g id="Layer_1-2" data-name="Layer 1"><path class="cls-1" d="M1.89,406,63,448.16a4.39,4.39,0,0,0,6.89-3.62v-308a4.39,4.39,0,0,1,6.87-3.62L226.84,235.39a4.39,4.39,0,0,0,4.95,0l54.15-37a4.4,4.4,0,0,0,0-7.26L6.87.77A4.39,4.39,0,0,0,0,4.4V402.34A4.41,4.41,0,0,0,1.89,406Z"/><path class="cls-1" d="M481.63,364l-20.05,12.64c-13.38,9.83-32.3,14-48.8,14A77.39,77.39,0,0,1,366.86,250.8l84.88-62.06h0L451.66,4.4A4.39,4.39,0,0,0,444.79.77L245,137.09a4.39,4.39,0,0,0,0,7.25l54.07,36.89a4.37,4.37,0,0,0,5.06-.08l60.38-44a9.75,9.75,0,0,1,14.38,3.09,9.55,9.55,0,0,1-2.82,12.13L312,199.43a137.56,137.56,0,0,0-28.64,193.43l7.38,9.84a152.83,152.83,0,0,0,204.72,37,4.39,4.39,0,0,0,2-3.69v-62.7A10.67,10.67,0,0,0,481.63,364Z"/></g></g></svg>