<svg xmlns="http://www.w3.org/2000/svg" xmlns:xlink="http://www.w3.org/1999/xlink" viewBox="0 0 462.86 431.58"><defs><style>.cls-1{fill:url(#linear-gradient);}.cls-2{fill:#212121;}</style><linearGradient id="linear-gradient" x1="200.93" y1="426.41" x2="-113.79" y2="26.83" gradientTransform="matrix(1, 0, 0, -1, 0, 433.98)" gradientUnits="userSpaceOnUse"><stop offset="0" stop-color="#bdfd46"/><stop offset="0.29" stop-color="#ffc50d"/><stop offset="0.58" stop-color="#fbaa19"/><stop offset="0.98" stop-color="#ef4862"/></linearGradient></defs><g id="Layer_2" data-name="Layer 2"><g id="Layer_1-2" data-name="Layer 1"><g id="Layer_2-2" data-name="Layer 2"><g id="Layer_1-2-2" data-name="Layer 1-2"><path class="cls-1" d="M266.06,177.87,6.39.71A4.09,4.09,0,0,0,0,4.09V374.36a4.1,4.1,0,0,0,1.76,3.36L58.57,417A4.1,4.1,0,0,0,65,413.63V127.05a4.08,4.08,0,0,1,6.39-3.37L211.07,219a4.1,4.1,0,0,0,4.6,0l50.39-34.4a4.09,4.09,0,0,0,1.05-5.68A4.15,4.15,0,0,0,266.06,177.87Z"/><path class="cls-2" d="M448.15,338.63,429.49,350.4c-12.45,9.14-30.06,13-45.41,13a72,72,0,0,1-42.73-130l79-57.74h0L420.26,4.08A4.09,4.09,0,0,0,413.87.71L228,127.55a4.08,4.08,0,0,0,0,6.75l50.31,34.32a4.11,4.11,0,0,0,4.71-.07l56.18-41a9.08,9.08,0,0,1,12.71,1.84,8.76,8.76,0,0,1,.67,1A8.91,8.91,0,0,1,350,141.77l-59.63,43.78a128,128,0,0,0-27.45,178.92l.8,1.08,6.87,9.16A142.19,142.19,0,0,0,461,409.1a4.09,4.09,0,0,0,1.86-3.43V347.33a9.92,9.92,0,0,0-14.71-8.7Z"/></g></g></g></g></svg>