<svg xmlns="http://www.w3.org/2000/svg" xmlns:xlink="http://www.w3.org/1999/xlink" viewBox="0 0 463.11 431.83"><defs><style>.cls-1,.cls-2{stroke:#ddd;stroke-miterlimit:10;stroke-width:0.25px;}.cls-1{fill:url(#linear-gradient);}.cls-2{fill:url(#linear-gradient-2);}</style><linearGradient id="linear-gradient" x1="201.06" y1="426.53" x2="-113.66" y2="26.96" gradientTransform="matrix(1, 0, 0, -1, 0, 434.23)" gradientUnits="userSpaceOnUse"><stop offset="0" stop-color="#ffc50d"/><stop offset="0.26" stop-color="#fcb215"/><stop offset="0.46" stop-color="#fbaa19"/><stop offset="0.56" stop-color="#f8912c"/><stop offset="0.76" stop-color="#f36a49"/><stop offset="0.91" stop-color="#f0515b"/><stop offset="1" stop-color="#ef4862"/></linearGradient><linearGradient id="linear-gradient-2" x1="214.45" y1="385.15" x2="494.81" y2="133.83" gradientUnits="userSpaceOnUse"><stop offset="0" stop-color="#424242"/><stop offset="0.04" stop-color="#404040"/><stop offset="0.63" stop-color="#292929"/><stop offset="1" stop-color="#212121"/></linearGradient></defs><g id="Layer_2" data-name="Layer 2"><g id="Layer_1-2" data-name="Layer 1"><g id="Layer_2-2" data-name="Layer 2"><g id="Layer_1-2-2" data-name="Layer 1-2"><path class="cls-1" d="M266.18,178,6.51.83A4.1,4.1,0,0,0,.12,4.21V374.48a4.12,4.12,0,0,0,1.76,3.36l56.81,39.27a4.09,4.09,0,0,0,5.7-1,4,4,0,0,0,.73-2.35V127.17a4.09,4.09,0,0,1,6.39-3.37L211.2,219.11a4.1,4.1,0,0,0,4.6,0l50.38-34.4a4.07,4.07,0,0,0,1.05-5.67A4.19,4.19,0,0,0,266.18,178Z"/><path class="cls-2" d="M448.27,338.75l-18.66,11.77c-12.45,9.14-30.06,13-45.41,13a72,72,0,0,1-42.73-130l79-57.74h0L420.39,4.2A4.11,4.11,0,0,0,414,.83L228.12,127.67a4.08,4.08,0,0,0,0,6.75l50.31,34.32a4.07,4.07,0,0,0,4.71-.07l56.18-40.95A9.09,9.09,0,0,1,352,129.56a7.66,7.66,0,0,1,.67,1,8.9,8.9,0,0,1-2.62,11.29l-59.63,43.78A128,128,0,0,0,263,364.6l.79,1.07,6.87,9.16a142.18,142.18,0,0,0,190.45,34.39,4,4,0,0,0,1.86-3.43V347.45a9.92,9.92,0,0,0-14.71-8.7Z"/></g></g></g></g></svg>