<?xml version="1.0" encoding="utf-8"?>
<!-- Generator: Adobe Illustrator 26.0.0, SVG Export Plug-In . SVG Version: 6.00 Build 0)  -->
<svg version="1.1" xmlns="http://www.w3.org/2000/svg" xmlns:xlink="http://www.w3.org/1999/xlink" x="0px" y="0px"
	 viewBox="0 0 640 640" style="enable-background:new 0 0 640 640;" xml:space="preserve">
<style type="text/css">
	.st0{display:none;}
	.st1{display:inline;}
	.st2{fill:#F25939;stroke:#000000;stroke-width:5;stroke-miterlimit:10;}
	.st3{fill:#292929;stroke:#000000;stroke-width:5;stroke-miterlimit:10;}
	.st4{fill:#F3F2F7;stroke:#F3F2F7;stroke-width:0.5;stroke-miterlimit:10;}
	.st5{fill:#292929;stroke:#F3F2F7;stroke-width:0.5;stroke-miterlimit:10;}
	.st6{display:inline;fill:#BFBDC1;}
	.st7{display:inline;fill:#3F3F3F;}
	.st8{display:none;fill:#BFBDC1;}
	.st9{display:inline;fill:#3F087F;}
	.st10{display:inline;fill:#FFFFFF;}
	.st11{fill:#BFBDC1;}
</style>
<g id="Layer_1">
	<g>
		<g>
			<g class="st0">
				<g class="st1">
					<path class="st2" d="M310.73,416.25l-58.37-39.82l-71.62,48.88c-4.36,2.98-10.28-0.15-10.28-5.43V136.42
						c0-4.25-4.77-6.75-8.26-4.33l-55.28,38.21c-1.42,0.98-2.27,2.6-2.27,4.33v382.23L310.73,416.25z"/>
					<path class="st2" d="M104.27,83.14v382.23c0,1.73,0.85,3.35,2.27,4.33l55.28,38.21c3.49,2.41,8.26-0.09,8.26-4.33V220.11
						c0-5.28,5.91-8.41,10.28-5.43l136.29,93.02c2.23,1.52,5.17,1.52,7.41,0l54.67-37.31L104.27,83.14z"/>
				</g>
				<g class="st1">
					<path class="st3" d="M329.65,223.75l58.37,39.82l71.62-48.88c4.36-2.98,10.28,0.15,10.28,5.43v283.47
						c0,4.25,4.77,6.75,8.26,4.33l55.28-38.21c1.42-0.98,2.27-2.6,2.27-4.33V83.14L329.65,223.75z"/>
					<path class="st3" d="M535.73,556.86V174.63c0-1.73-0.85-3.35-2.27-4.33l-55.28-38.21c-3.49-2.41-8.26,0.09-8.26,4.33v283.47
						c0,5.28-5.91,8.41-10.28,5.43l-136.29-93.02c-2.23-1.52-5.17-1.52-7.41,0l-54.67,37.31L535.73,556.86z"/>
				</g>
			</g>
			<g>
				<path class="st4" d="M104.27,83.14v382.23c0,0.67,0.13,1.33,0.37,1.94v89.54l206.08-140.6l-58.37-39.82l-71.62,48.88
					c-4.36,2.98-10.28-0.15-10.28-5.43V217.94c1.35-3.89,6.18-5.79,9.9-3.25l136.29,93.02c2.23,1.52,5.17,1.52,7.41,0l54.67-37.31
					L104.27,83.14z"/>
				<path class="st5" d="M329.65,223.75l58.37,39.82l71.62-48.88c4.36-2.98,10.28,0.15,10.28,5.43v199.77
					c0,5.28-5.91,8.41-10.28,5.43l-136.29-93.02c-2.23-1.52-5.17-1.52-7.41,0l-54.67,37.31l274.46,187.25v-91.48V174.63V83.14
					L329.65,223.75z"/>
			</g>
			<g class="st0">
				<path class="st6" d="M94.3,59.29v382.23c0,1.73,0.85,3.35,2.27,4.33l55.28,38.21c3.49,2.41,8.26-0.09,8.26-4.33V196.26
					c0-5.28,5.91-8.41,10.28-5.43l136.29,93.02c2.23,1.52,5.17,1.52,7.41,0l54.67-37.31L94.3,59.29z"/>
				<path class="st7" d="M537.46,371.55l-97.25,66.65c-1.06,0.8-2.14,1.59-3.25,2.35l-76.84,53.2l-9.28,6.36
					c-0.13,0.12-0.27,0.23-0.4,0.34l-0.76,0.53l0.05,0.08c-9.42,7.99-21.39,13.03-34.47,13.61c-32.88,1.45-60.09-24.88-60.09-57.44
					c0-18.45,8.45-34.97,22-45.5c0.07-0.09,0.14-0.17,0.21-0.25l35.8-24.54c1.06-0.8,2.14-1.59,3.25-2.35L525.7,241.16l-0.04-20.02
					h0.1V59.29l-206.08,140.6l58.37,39.82l71.62-48.88c4.36-2.98,10.28,0.15,10.28,5.43v10.31L245.42,353.58
					c-0.22,0.15-0.44,0.31-0.66,0.47c-33.49,22.09-55.6,60.04-55.6,103.17v0c0,68.21,55.29,123.5,123.5,123.5h0
					c26.44,0,50.94-8.31,71.03-22.46l0.16,0.26l124.11-86.97c23.46-16.08,37.53-42.65,37.64-71.09l0.1-24.54
					C545.72,371.67,540.96,369.15,537.46,371.55z"/>
			</g>
		</g>
		<path class="st8" d="M514.93,96.1L329.75,222.44c-0.04,0.03-0.04,0.09,0,0.12L388,262.31c0.02,0.02,0.06,0.02,0.08,0l46.2-31.53
			c6.11-4.17,14.4,0.21,14.4,7.6v0c0,2.94-1.4,5.7-3.77,7.43l-46.77,34.18c-63.13,46.14-76.91,134.72-30.78,197.85l0,0
			c46.46,63.57,135.86,77.03,198.97,29.95l84.58-63.1c6.28-4.69,2.97-14.67-4.87-14.67h-84.72c-0.02,0-0.03,0-0.04,0.01
			l-33.45,24.44c-34.76,25.4-84.13,17.28-107.88-18.63c-22-33.26-14.17-78.28,18.37-102.05l28.9-21.12l31.57-23.28
			c10.31-7.6,16.39-19.64,16.39-32.45v-59.12"/>
	</g>
</g>
<g id="Layer_2">
	<g class="st0">
		<polygon class="st9" points="501,113.52 501,112.76 318.9,286.28 364.56,329.79 438.02,259.79 438.02,539.5 501.02,479.5 
			501.02,113.5 		"/>
		<rect x="422" y="316" class="st10" width="117" height="324"/>
		<polygon class="st6" points="349.95,349 102,112.76 102,113.52 101.98,113.5 101.98,479.5 164.98,539.5 164.98,259.79 
			305.94,391.23 		"/>
		<g class="st1">
			<polygon class="st11" points="369,396.26 306,456.26 306,642.26 369,582.26 			"/>
			<polygon class="st11" points="236.03,593 236,506 500.98,253.52 501,340.52 			"/>
			<polygon class="st11" points="236.03,713 236,626 500.98,373.52 501,460.52 			"/>
		</g>
		<rect x="188" y="396" class="st10" width="117" height="375"/>
		<polygon class="st6" points="289.2,663.51 291.32,576.53 159.8,445.01 157.68,531.99 		"/>
	</g>
	<polygon class="st8" points="557,627 620,567 620,201 557,261 	"/>
	<path class="st8" d="M113,27.34v421l421,196.32v-421L113,27.34z M474,556.68L173,416.32v-301l301,140.36V556.68z"/>
	<path class="st8" d="M373.83,199.96l-64.33,30L429,285.68v301l-55.17-25.72l-64.33-30L190,475.23l-60-27.98v60l60,27.98
		l55.17,25.73l64.33,30l179.5,83.7v-421L373.83,199.96z"/>
	<path class="st8" d="M609,266.23l-58,27.05l-60,27.98v60l60-27.98l2.83-1.32L609,326.23l60-27.98v-60L609,266.23z M310,44.66
		v185.07l60-27.98V76.68l119.5-55.72l-64.33-30L310,44.66z"/>
	<polygon class="st8" points="491,446.26 491,506.26 489.5,506.96 310,590.66 310,354.73 370,326.75 370,502.68 425.17,476.96 
		489.5,446.96 	"/>
	<polygon class="st8" points="551,57.34 551,478.34 489,507.25 489,447.25 491,446.32 491,145.32 373.83,199.96 370,201.75 
		310,229.73 309.5,229.96 245.17,199.96 128,145.32 128,446.32 130,447.25 130,507.25 68,478.34 68,57.34 309.5,169.96 310,169.73 
		370,141.75 	"/>
</g>
</svg>
