<svg xmlns="http://www.w3.org/2000/svg" viewBox="0 0 1000.85 933.25"><defs><style>.cls-1{fill:#ddd;}</style></defs><g id="Layer_2" data-name="Layer 2"><g id="Layer_3" data-name="Layer 3"><path class="cls-1" d="M3.81,816.79,126.66,901.7a8.84,8.84,0,0,0,13.86-7.27V274.75a8.84,8.84,0,0,1,13.82-7.3L456.4,473.61a8.83,8.83,0,0,0,10,0l109-74.37a8.83,8.83,0,0,0,0-14.59L13.82,1.56A8.84,8.84,0,0,0,0,8.86V809.52A8.83,8.83,0,0,0,3.81,816.79Z"/><path class="cls-1" d="M969.05,732.27,928.7,757.71c-26.92,19.76-65,28.12-98.18,28.12-50.26,0-96.09-23.17-125.75-63.57C654,653.05,668.92,555.42,738.12,504.61L908.9,379.75h0l-.15-370.9a8.84,8.84,0,0,0-13.82-7.3l-402,274.27a8.84,8.84,0,0,0,0,14.6l108.78,74.22a8.86,8.86,0,0,0,10.19-.16l121.47-88.54c9.57-7,23.48-4.28,28.94,6.23a19.24,19.24,0,0,1-5.67,24.41L627.7,401.25c-124.11,91.13-150,266-57.62,389.18l14.86,19.81C682.17,939.88,862.31,971,996.83,884.64a8.82,8.82,0,0,0,4-7.43V751.07A21.46,21.46,0,0,0,969.05,732.27Z"/></g></g></svg>