<svg xmlns="http://www.w3.org/2000/svg" xmlns:xlink="http://www.w3.org/1999/xlink" viewBox="0 0 462.85 431.59"><defs><style>.cls-1{fill:url(#linear-gradient);}.cls-2{fill:url(#linear-gradient-2);}</style><linearGradient id="linear-gradient" x1="232.22" y1="35.26" x2="-151.66" y2="368.94" gradientUnits="userSpaceOnUse"><stop offset="0.31" stop-color="#ffc50d"/><stop offset="0.56" stop-color="#fbaa19"/><stop offset="0.81" stop-color="#ef4862"/></linearGradient><linearGradient id="linear-gradient-2" x1="448.79" y1="167.29" x2="151.37" y2="455.42" gradientUnits="userSpaceOnUse"><stop offset="0.21" stop-color="#ffc50d"/><stop offset="0.36" stop-color="#fdb614"/><stop offset="0.46" stop-color="#fbaa19"/><stop offset="0.74" stop-color="#ef4862"/></linearGradient></defs><g id="Layer_2" data-name="Layer 2"><g id="Layer_1-2" data-name="Layer 1"><path class="cls-1" d="M266.06,177.88,6.39.72A4.09,4.09,0,0,0,0,4.1V374.37a4.09,4.09,0,0,0,1.76,3.36L58.57,417A4.09,4.09,0,0,0,65,413.64V127.06a4.08,4.08,0,0,1,6.39-3.37L211.07,219a4.1,4.1,0,0,0,4.6,0l50.39-34.4A4.08,4.08,0,0,0,266.06,177.88Z"/><path class="cls-2" d="M448.15,338.64l-18.66,11.77c-12.45,9.14-30.06,13-45.41,13a72,72,0,0,1-42.73-130l79-57.74h0L420.26,4.09A4.09,4.09,0,0,0,413.87.72L228,127.56a4.08,4.08,0,0,0,0,6.75l50.31,34.32a4.09,4.09,0,0,0,4.71-.07l56.18-40.95a9.08,9.08,0,0,1,13.38,2.88,8.91,8.91,0,0,1-2.62,11.29l-59.63,43.78a128,128,0,0,0-26.65,180l6.87,9.16A142.19,142.19,0,0,0,461,409.11a4.07,4.07,0,0,0,1.86-3.43V347.34A9.92,9.92,0,0,0,448.15,338.64Z"/></g></g></svg>